<svg xmlns="http://www.w3.org/2000/svg" viewBox="0 0 600 599.999"><g transform="translate(-10 -10)"><g transform="translate(10 10)"><path d="M445.5-70.951C432.624-45.2,422.22-22.91,422.22-21.426s22.285,2.477,49.525,2.477,49.526-.993,49.526-2.477c0-4.954-47.049-96.574-49.526-96.574C470.262-118,458.374-96.708,445.5-70.951Z" transform="translate(-171.746 118)" fill="#efefef"/><path d="M151.12,27.578c1.484,3.961,9.908,28.723,18.816,55.963l15.849,48.532,36.644-36.154c20.306-20.306,36.651-36.644,36.651-37.141S237.29,50.36,211.038,41.446c-26.743-8.418-51.506-16.835-55.466-18.325C151.12,21.134,149.134,23.121,151.12,27.578Z" transform="translate(-60.984 67.016)" fill="#efefef"/><path d="M732.487,40.4c-26.743,8.914-49.526,17.332-50.512,18.325S696.83,76.55,716.639,96.359l36.644,36.154L769.131,83.98c8.914-27.24,17.332-52,18.816-55.466C790.927,20.587,788.946,20.587,732.487,40.4Z" transform="translate(-278.09 66.576)" fill="#efefef"/><path d="M360.692,99.233c-31.365,4.614-74.722,27.679-93.634,49.357-7.84,8.766-20.294,29.524-28.134,45.668-35.054,75.191-3.689,168.371,69.646,207.58,50.74,27.217,107.469,27.217,157.747.463,33.672-17.994,52.121-37.827,70.108-76.579,11.535-24.447,13.836-35.057,13.836-65.5,0-31.368-1.844-41.053-13.379-65.963-17.987-38.746-36.436-59.042-69.189-76.573C444.173,105.229,433.1,102,394.815,96.463,389.751,95.544,374.533,96.932,360.692,99.233Z" transform="translate(-87.943 40.198)" fill="#efefef"/><path d="M56.055,318.268C30.8,331.15,10,342.541,10,344.024c0,2.477,91.62,49.526,96.574,49.526,1.484,0,2.477-22.286,2.477-49.526S107.567,294.5,105.581,295C103.1,295,80.818,305.394,56.055,318.268Z" transform="translate(-10 -44.036)" fill="#efefef"/><path d="M834.44,343.745c0,27.24.994,49.526,2.477,49.526,4.954,0,96.574-47.048,96.574-49.526s-91.62-49.526-96.574-49.526C835.434,294.22,834.44,316.506,834.44,343.745Z" transform="translate(-333.491 -43.746)" fill="#efefef"/><path d="M168.661,602.816c-9.908,29.22-16.835,53.982-16.345,54.976,1.49,1.484,102.515-31.7,105.489-34.664.987-.993-14.855-17.828-34.664-37.644L186.49,549.33Z" transform="translate(-61.689 -148.42)" fill="#efefef"/><path d="M713.483,588.649,677.33,625.293l53.486,17.829c29.22,9.907,53.982,16.835,54.976,16.345,1.484-1.483-31.7-102.515-34.664-105.482C750.134,552.992,733.293,568.84,713.483,588.649Z" transform="translate(-276.419 -150.095)" fill="#efefef"/><path d="M422.22,708.917c0,4.955,47.048,96.574,49.525,96.574s49.526-91.62,49.526-96.574c0-1.483-22.286-2.477-49.526-2.477S422.22,707.434,422.22,708.917Z" transform="translate(-171.745 -205.492)" fill="#efefef"/></g></g></svg>