<svg xmlns="http://www.w3.org/2000/svg" viewBox="0 0 902.003 830.939"><g transform="translate(-10.003 -48.608)"><g transform="translate(10.003 48.608)"><path d="M337.923-454.06c-2.632,4.887-7.713,17.313-11.477,27.281-24.271,65.1-17.874,103.287,17.5,103.857,24.833.378,35.556-17.313,31.8-52.49-2.448-23.516-24.455-84.851-31.046-86.923C343.372-462.906,340.362-459.141,337.923-454.06Z" transform="translate(-34.033 462.392)" fill="#efefef"/><path d="M245.268-363.84c-1.878,5.265.939,39.7,4.142,47.225,4.7,11.1,9.968,15.619,18.252,15.619,5.265,0,8.652-1.316,11.855-4.7,9.968-9.784,3.949-26.9-17.313-49.48C250.91-367.227,247.339-369.114,245.268-363.84Z" transform="translate(-28.679 454.768)" fill="#efefef"/><path d="M427.451-353.09c-12.978,13.733-21.261,27.1-21.261,34.809,0,10.345,7.529,17.313,19.006,17.313,7.151,0,14.11-7.151,17.12-17.681,2.826-9.968,3.194-46.664.377-47.6C441.561-366.638,434.787-360.8,427.451-353.09Z" transform="translate(-41.534 454.74)" fill="#efefef"/><path d="M107.75-362.178c0,4.326,12.978,35.187,22.955,54.377,11.662,22.2,23.894,37.819,36.126,45.909,20.507,13.926,44.962,3.764,50.8-20.7,2.448-10.538-2.071-20.129-16.558-34.239-15.049-14.864-37.443-28.035-68.111-40.451C112.637-365.372,107.75-366.32,107.75-362.178Z" transform="translate(-17.782 454.606)" fill="#efefef"/><path d="M558.77-360.3c-44.971,17.5-78.088,39.5-87.679,57.948a40.065,40.065,0,0,0-3.571,16.18c0,22.955,25.781,37.626,46.849,26.719,9.6-4.7,23.71-20.7,34.433-38.942,9.406-16.181,25.4-51.358,27.1-60.58C577.39-366.333,574.757-366.517,558.77-360.3Z" transform="translate(-46.415 454.619)" fill="#efefef"/><path d="M311.217-285.259a148.607,148.607,0,0,0-109.686,81.841c-11.1,23.139-14.865,40.267-14.672,65.845.184,34.993,10.723,64.529,32.362,91.809,10.161,12.609,22.394,23.893,25.965,23.893.939,0,5.081-6.967,9.029-15.426,28.781-59.642,82.6-107.613,144.5-128.5,18.252-6.02,43.646-10.345,61.714-10.345,8.09,0,15.049-.755,15.8-1.693,1.5-2.632-6.213-22.016-14.487-36.5-9.591-16.558-28.6-36.687-44.778-47.41C386.663-281.872,345.649-291.095,311.217-285.259Z" transform="translate(-24.078 448.429)" fill="#efefef"/><path d="M106.7-225.788c-1.132,1.51,2.826,6.4,11.855,15.048,26.526,25.4,46.849,29.158,53.062,10.161,3.01-9.406-.562-15.8-12.039-21.445-7.713-3.948-12.794-4.9-30.291-5.458C113.294-228.052,107.836-227.674,106.7-225.788Z" transform="translate(-17.684 443.711)" fill="#efefef"/><path d="M538.211-225.222c-11.671,2.826-17.313,5.835-19.752,10.539-4.326,8.09-.755,20.7,6.958,24.271,6.59,3.01,10.722,2.632,20.884-2.071,10.723-5.081,37.259-29.913,35.372-33.116C579.795-228.609,550.627-228.232,538.211-225.222Z" transform="translate(-50.321 443.708)" fill="#efefef"/><path d="M95.645-160.288c-25.21,3.194-87.3,26.719-85.608,32.177.939,2.632,25.21,13.548,46.849,20.884,32.178,11.1,61.52,13.732,76.385,6.958,22.955-10.345,22.955-46.471.184-57.009C124.988-161.042,110.878-162.174,95.645-160.288Z" transform="translate(-10.003 438.415)" fill="#efefef"/><path d="M429.386-141.2C358.837-127.835,297.878-79.294,269.648-14.01c-14.487,33.861-20.7,73-16.742,105.735,1.316,10.538,2.632,21.445,3.2,24.087.939,4.519,0,5.458-16.558,13.548q-58.7,28.785-75.069,93.512c-5.458,21.823-4.326,52.49,2.632,74.313,12.61,38.38,43.278,71.5,80.15,86.361,27.281,11.1,16.558,10.723,304.988,10.161l264.343-.561,14.487-4.887c22.578-7.713,38.575-17.69,54.185-33.493,16-16.365,24.649-29.729,31.229-48.919,19.945-57.387-.755-120.783-50.043-153.522-18.629-12.416-34.617-18.436-60.4-22.577l-6.774-.939,2.632-9.784c3.2-12.793,3.2-39.319-.377-52.306C792.13,30.951,762.972,1.6,728.162-7.613c-12.039-3.01-39.136-3.764-50.043-1.132l-6.774,1.5-6.4-13.171a216.538,216.538,0,0,0-38.759-56.07c-30.475-31.984-62.275-50.613-105.921-62.274C501.068-143.832,450.464-145.148,429.386-141.2Z" transform="translate(-22.023 437.007)" fill="#efefef"/><path d="M140.946-62.427c-10.161,5.265-36.126,30.668-34.433,33.3,1.694,2.826,22.016,3.01,37.249.377,22.2-3.571,31.984-12.609,27.842-25.587C167.472-66.569,155.056-69.763,140.946-62.427Z" transform="translate(-17.678 430.863)" fill="#efefef"/><path d="M177-4.829c-9.029,2.448-22.016,13.732-32.546,28.6-14.3,20.322-39.7,76.006-36.126,79.587,3.01,2.826,52.491-18.629,73.375-31.984,34.617-22.2,44.778-45.716,28.22-65.477C204.845-.126,192.051-7.084,186.787-6.9,185.286-6.716,180.767-5.768,177-4.829Z" transform="translate(-17.802 426.133)" fill="#efefef"/></g></g></svg>