<svg xmlns="http://www.w3.org/2000/svg" viewBox="0 0 979.901 538.1"><g transform="translate(-10 -231)"><path d="M185.4,768.9h0a175.012,175.012,0,0,1-68.1-14.7h0A178.109,178.109,0,0,1,10,590.7h0a175.721,175.721,0,0,1,14.8-70.8h0A178.314,178.314,0,0,1,188.4,412.7h1.8A238.034,238.034,0,0,1,203,374.2h0C241.8,284.5,329.3,231,421.1,231h0a237.914,237.914,0,0,1,94.4,19.7h0A237.563,237.563,0,0,1,646,393.3h0a192.442,192.442,0,0,1,54.7-7.9h0a188.482,188.482,0,0,1,75.7,15.9h0A191.3,191.3,0,0,1,888,538.7h0a112.941,112.941,0,0,1,33,8.4h0l.1.1a114.655,114.655,0,0,1,68.8,105.4h0a114.558,114.558,0,0,1-9.5,45.7h0c-17,38.9-52.8,66.6-94.1,70.7h0l-1.3.1-699.6-.2Z" fill="#efefef"/></g></svg>