<svg xmlns="http://www.w3.org/2000/svg" viewBox="0 0 980 551.4"><g transform="translate(-10 -224.3)"><path d="M990,652.2A122.442,122.442,0,0,1,867.5,774.7v1H346.9a153.116,153.116,0,0,1-30.3-303.2c0-1-.3-2-.3-3.1A183.749,183.749,0,0,1,500.1,285.6c71.7,0,133,41.4,163.4,101.2,16-5.6,33-9.3,51-9.3A152.925,152.925,0,0,1,867.4,528.7h.2v1A122.421,122.421,0,0,1,990,652.2ZM258.6,427.1c14.2-81.5,69.2-148.5,142.7-181.1a179.53,179.53,0,0,0-85.1-21.7A183.749,183.749,0,0,0,132.4,408.1c0,1.1.3,2,.3,3.1A153.137,153.137,0,0,0,10,561.3c0,81.3,63.5,147.1,143.4,152.2-13-27.7-20.9-58.3-20.9-90.9C132.5,537.2,183.4,461.2,258.6,427.1Z" fill="#efefef"/></g></svg>