<svg xmlns="http://www.w3.org/2000/svg" viewBox="0 0 895.969 1031.055"><g transform="translate(-74.2 -10)"><g transform="translate(74.2 10)"><g transform="translate(0 0)"><g transform="translate(416.06 551.124)"><path d="M501.825,916.566A31.958,31.958,0,0,1,469.9,884.642V569.425a31.925,31.925,0,0,1,63.85,0V884.642A31.889,31.889,0,0,1,501.825,916.566Z" transform="translate(-469.9 -537.5)" fill="#efefef"/></g><path d="M757.014,687.313a213.268,213.268,0,0,1-52.71-6.788A31.949,31.949,0,0,1,681.578,641.6a31.553,31.553,0,0,1,38.612-22.909A147.556,147.556,0,0,0,831.923,603.1a151.587,151.587,0,0,0,75.015-130.669,149.663,149.663,0,0,0-32.51-93.547,32.234,32.234,0,0,1-2.42-36.273,104.067,104.067,0,0,0-37.034-142.866,102.974,102.974,0,0,0-99.739-1.8,31.536,31.536,0,0,1-42.084-11.773C651.488,115.85,578.472,73.849,497.776,73.849a225.508,225.508,0,0,0-113.732,30.97,228.817,228.817,0,0,0-68.6,61.622,30.91,30.91,0,0,1-26.2,12.833,31.537,31.537,0,0,1-3.156-.212c-24.935,0-50.817,7.106-73.647,20.364a150.72,150.72,0,0,0,41.242,277.458,32.056,32.056,0,0,1,23.567,23.334,228.458,228.458,0,0,0,75.12,120.38,32.015,32.015,0,0,1,4,44.97,31.417,31.417,0,0,1-44.609,4.03,292.009,292.009,0,0,1-90.9-135.759,214.975,214.975,0,0,1-40.19-17.924C115.022,477.734,74.2,406.46,74.2,330.2A215.986,215.986,0,0,1,180.778,144.275a213.6,213.6,0,0,1,93.847-28.637,291.335,291.335,0,0,1,77.75-66.077A288.074,288.074,0,0,1,497.776,10c93.953,0,179.7,44.44,234.513,120.062a166.589,166.589,0,0,1,134.459,14.318,168.24,168.24,0,0,1,69.334,211.806,212.523,212.523,0,0,1,34.088,116.244A215.986,215.986,0,0,1,863.592,658.358,211.215,211.215,0,0,1,757.014,687.313Z" transform="translate(-74.2 -10)" fill="#efefef"/><g transform="translate(415.105 965.297)"><ellipse cx="32.879" cy="32.879" rx="32.879" ry="32.879" fill="#efefef"/></g><g transform="translate(515.107 457.836)"><path d="M596.025,826.372A31.957,31.957,0,0,1,564.1,794.447V479.125a31.925,31.925,0,0,1,63.85,0V794.341A31.98,31.98,0,0,1,596.025,826.372Z" transform="translate(-564.1 -447.2)" fill="#efefef"/></g><g transform="translate(514.15 869.522)"><ellipse cx="32.879" cy="32.879" rx="32.879" ry="32.879" fill="#efefef"/></g><g transform="translate(317.013 379.088)"><path d="M407.625,751.066A31.957,31.957,0,0,1,375.7,719.142V403.925a31.925,31.925,0,0,1,63.85,0V719.142A31.957,31.957,0,0,1,407.625,751.066Z" transform="translate(-375.7 -372)" fill="#efefef"/></g><g transform="translate(316.06 791.27)"><ellipse cx="32.879" cy="32.879" rx="32.879" ry="32.879" fill="#efefef"/></g></g></g></g></svg>