<svg xmlns="http://www.w3.org/2000/svg" viewBox="0 0 942.2 980"><g transform="translate(-28.8 -10)"><path d="M582.2,131.4a20.528,20.528,0,0,0,20.5-20.5V30.5a20.5,20.5,0,0,0-41,0v80.4A20.528,20.528,0,0,0,582.2,131.4Z" fill="#efefef"/><path d="M364.2,209.7a20.506,20.506,0,0,0,29-29l-56.8-56.9a20.506,20.506,0,0,0-29,29Z" fill="#efefef"/><path d="M800.3,587.8a20.506,20.506,0,0,0-29,29l56.9,56.9a20.506,20.506,0,0,0,29-29Z" fill="#efefef"/><path d="M950.5,378.2H870.1a20.5,20.5,0,0,0,0,41h80.4a20.5,20.5,0,0,0,0-41Z" fill="#efefef"/><path d="M785.8,215.7a20.357,20.357,0,0,0,14.5-6l56.9-56.9a20.506,20.506,0,0,0-29-29l-56.9,56.9a20.5,20.5,0,0,0,14.5,35Z" fill="#efefef"/><path d="M811.5,398.8c0-126.4-102.9-229.3-229.3-229.3C480.5,169.5,392,236.6,363,332.1a188.286,188.286,0,0,0-154.1,15.7,186.539,186.539,0,0,0-50.3,42.5A137.955,137.955,0,0,0,97.8,647.5a135.1,135.1,0,0,0,26,11.5,186.623,186.623,0,0,0,58.8,87.1,20.518,20.518,0,1,0,26.3-31.5,146.623,146.623,0,0,1-48.7-77.3,20.522,20.522,0,0,0-15.2-15,96.164,96.164,0,0,1-75-94.2,97.344,97.344,0,0,1,48.5-83.9A95.868,95.868,0,0,1,166,431.1c.5,0,1.9.1,2.3.1a20.3,20.3,0,0,0,16.8-8.2,148.732,148.732,0,0,1,44.4-39.6,147,147,0,0,1,73.6-19.9c52.3,0,99.6,27,126.5,72.1a20.59,20.59,0,0,0,27.3,7.6,66.592,66.592,0,0,1,97.9,58.6,66.236,66.236,0,0,1-9.4,33.6,20.654,20.654,0,0,0-2.8,12.1,19.975,19.975,0,0,0,4.4,11.8,102.291,102.291,0,0,1,9.5,14.4c1.3,2.5,2.6,5,3.7,7.6a14.581,14.581,0,0,1,.7,1.9,98.533,98.533,0,0,1,6.2,26.1,15.468,15.468,0,0,0,.6,3.1c.2,2.3.3,4.7.3,7.1a97.344,97.344,0,0,1-48.5,83.9,95.811,95.811,0,0,1-72.3,10,20.507,20.507,0,1,0-10.3,39.7A137.953,137.953,0,0,0,608.8,626.3C724.1,613.2,811.5,517,811.5,398.8ZM604.8,585.5a132.686,132.686,0,0,0-6.5-19.3c-.5-1.3-1-2.5-1.6-3.8-.2-.4-.4-.9-.6-1.3a135.584,135.584,0,0,0-9-16.8,106.765,106.765,0,0,0,8.8-42.5v-.6A107.684,107.684,0,0,0,455,398.9a182.663,182.663,0,0,0-28.8-30.8c-2-1.7-4-3.4-6-5-2.3-1.9-4.7-3.7-7.2-5.5-3.3-2.3-6.6-4.6-10-6.7-.8-.5-1.5-1.1-2.4-1.6A188.339,188.339,0,0,1,582.2,210.4c103.8,0,188.3,84.4,188.3,188.2C770.5,495.6,699,574.5,604.8,585.5Z" fill="#efefef"/><path d="M319,925.3a20.528,20.528,0,0,0,20.5-20.5V702.3a20.5,20.5,0,0,0-41,0V904.8A20.528,20.528,0,0,0,319,925.3Z" fill="#efefef"/><circle cx="21.1" cy="21.1" r="21.1" transform="translate(297.9 947.8)" fill="#efefef"/><path d="M383.2,863.7a20.528,20.528,0,0,0,20.5-20.5V640.8a20.5,20.5,0,0,0-41,0V843.3A20.443,20.443,0,0,0,383.2,863.7Z" fill="#efefef"/><circle cx="21.1" cy="21.1" r="21.1" transform="translate(362.1 886.3)" fill="#efefef"/><path d="M254.8,812.5A20.528,20.528,0,0,0,275.3,792V589.5a20.5,20.5,0,0,0-41,0V792A20.528,20.528,0,0,0,254.8,812.5Z" fill="#efefef"/><circle cx="21.1" cy="21.1" r="21.1" transform="translate(233.7 835)" fill="#efefef"/></g></svg>