<svg xmlns="http://www.w3.org/2000/svg" viewBox="0 0 911.3 980"><g transform="translate(-44.3 -10)"><path d="M689.3,639.6A21.723,21.723,0,0,1,667.6,618c0-7.9,11.2-28.8,21.7-45.7,10.5,16.9,21.6,37.8,21.6,45.7A21.51,21.51,0,0,1,689.3,639.6Zm-212.8,18a4.912,4.912,0,0,0-.8,5.3,4.822,4.822,0,0,0,4.5,2.9h55L305.9,911.6,441.8,716a4.72,4.72,0,0,0,.3-5.1,5.062,5.062,0,0,0-4.4-2.7H337.3L467,553.4H568.7ZM745.2,536.7H206.6c-89.5,0-162.3-72.8-162.3-162.3A161.794,161.794,0,0,1,189.5,213l7.4-1.7v-7.5c0-89.5,72.8-162.3,162.3-162.3,61.3,0,116.7,34.1,144.6,89l3.1,6.2,6.6-1.9a161.857,161.857,0,0,1,187.2,77.3l3,5.5,6.1-1.4c104.1-22.9,197.5,57.4,197.5,158.3C907.5,464,834.7,536.7,745.2,536.7Zm173-207.2c-22.8-87.1-109.5-148.9-205.8-130.9a178.358,178.358,0,0,0-196.8-81.7,179.069,179.069,0,0,0-45.5-53.6C490.3,31.4,525.6,10,566,10A113.157,113.157,0,0,1,667.3,72.3l3.1,6.2,6.7-1.9c51.2-14.9,105.9,8.7,131.1,54.1l3,5.5,6.1-1.3c73.2-16,138.3,40.2,138.3,110.9A112.732,112.732,0,0,1,918.2,329.5Z" fill="#efefef"/><path d="M293.4,663.3c0-18.2-26.3-58.3-31.6-66.2l-6.6-9.8-6.6,9.8C243.3,605,217,645,217,663.3a38.2,38.2,0,1,0,76.4,0Z" fill="#efefef"/><path d="M558.6,739.7a2.656,2.656,0,0,0-2.2,1.1l-81.9,97.8a2.764,2.764,0,0,0-.4,3,2.979,2.979,0,0,0,2.6,1.7h59.1L437,985.5a2.941,2.941,0,0,0,.5,3.9,3,3,0,0,0,1.8.6,2.723,2.723,0,0,0,2.1-.9L606.7,811.9a2.772,2.772,0,0,0,.5-3.1,2.808,2.808,0,0,0-2.6-1.7H572.4l55.4-62.5a2.961,2.961,0,0,0,.5-3.1,2.808,2.808,0,0,0-2.6-1.7l-67.1-.1Z" fill="#efefef"/></g></svg>