<svg xmlns="http://www.w3.org/2000/svg" viewBox="0 0 980 684.4"><g transform="translate(-10 -157.8)"><path d="M958.9,593.3H41.1a31.1,31.1,0,1,1,0-62.2H912.2c17.2,0,77.8,13.9,77.8,31.1A31.069,31.069,0,0,1,958.9,593.3ZM803.3,468.9H87.8a31.1,31.1,0,0,1,0-62.2H803.4a31.1,31.1,0,1,1-.1,62.2ZM756.7,220H461.1a31.1,31.1,0,0,1,0-62.2H756.7a31.1,31.1,0,0,1,0,62.2Zm-31.1,93.3a31.069,31.069,0,0,1-31.1,31.1H227.8a31.1,31.1,0,0,1,0-62.2H694.5A31.2,31.2,0,0,1,725.6,313.3ZM196.7,780H647.8a31.1,31.1,0,0,1,0,62.2H196.7a31.1,31.1,0,1,1,0-62.2Zm124.4-93.3a31.069,31.069,0,0,1,31.1-31.1H850a31.1,31.1,0,0,1,0,62.2H352.2A31.069,31.069,0,0,1,321.1,686.7Z" fill="#efefef"/></g></svg>